<?xml version="1.0" encoding="UTF-8"?>
<mxfile host="app.diagrams.net" agent="Mozilla/5.0 (Windows NT 10.0; Win64; x64) AppleWebKit/537.36 (KHTML, like Gecko) Chrome/133.0.0.0 Safari/537.36" version="26.0.16">
  <diagram name="Страница — 1" id="Nc0gHKSvgCwPqRB7gPhM">
    <mxGraphModel dx="1434" dy="738" grid="1" gridSize="10" guides="1" tooltips="1" connect="1" arrows="1" fold="1" page="1" pageScale="1" pageWidth="827" pageHeight="1169" math="0" shadow="0">
      <root>
        <mxCell id="0" />
        <mxCell id="1" parent="0" />
        <mxCell id="2" value="&lt;font style=&quot;font-size: 18px; color: rgb(0, 0, 0);&quot; face=&quot;Times New Roman&quot;&gt;Експлуатація&lt;/font&gt;" style="rounded=1;whiteSpace=wrap;html=1;fillColor=#cce5ff;strokeColor=#36393d;strokeWidth=2;" vertex="1" parent="1">
          <mxGeometry x="790" y="480" width="160" height="60" as="geometry" />
        </mxCell>
        <mxCell id="3" value="" style="endArrow=classic;html=1;rounded=0;exitX=1;exitY=0.5;exitDx=0;exitDy=0;entryX=0.5;entryY=0;entryDx=0;entryDy=0;edgeStyle=orthogonalEdgeStyle;curved=1;strokeWidth=2;strokeColor=#98AABD;" edge="1" source="12" target="13" parent="1">
          <mxGeometry width="50" height="50" relative="1" as="geometry">
            <mxPoint x="350" y="230" as="sourcePoint" />
            <mxPoint x="400" y="180" as="targetPoint" />
          </mxGeometry>
        </mxCell>
        <mxCell id="4" value="" style="endArrow=classic;html=1;rounded=0;exitX=0;exitY=0.5;exitDx=0;exitDy=0;entryX=0.5;entryY=1;entryDx=0;entryDy=0;edgeStyle=orthogonalEdgeStyle;curved=1;strokeWidth=2;strokeColor=#98AABD;" edge="1" source="13" target="12" parent="1">
          <mxGeometry width="50" height="50" relative="1" as="geometry">
            <mxPoint x="320" y="200" as="sourcePoint" />
            <mxPoint x="400" y="250" as="targetPoint" />
          </mxGeometry>
        </mxCell>
        <mxCell id="5" value="" style="endArrow=classic;html=1;rounded=0;exitX=1;exitY=0.5;exitDx=0;exitDy=0;entryX=0.5;entryY=0;entryDx=0;entryDy=0;edgeStyle=orthogonalEdgeStyle;curved=1;strokeWidth=2;strokeColor=#98AABD;" edge="1" source="13" target="14" parent="1">
          <mxGeometry width="50" height="50" relative="1" as="geometry">
            <mxPoint x="480" y="270" as="sourcePoint" />
            <mxPoint x="560" y="320" as="targetPoint" />
          </mxGeometry>
        </mxCell>
        <mxCell id="6" value="" style="endArrow=classic;html=1;rounded=0;exitX=0;exitY=0.5;exitDx=0;exitDy=0;entryX=0.5;entryY=1;entryDx=0;entryDy=0;edgeStyle=orthogonalEdgeStyle;curved=1;strokeWidth=2;strokeColor=#98AABD;" edge="1" source="14" target="13" parent="1">
          <mxGeometry width="50" height="50" relative="1" as="geometry">
            <mxPoint x="480" y="280" as="sourcePoint" />
            <mxPoint x="560" y="330" as="targetPoint" />
          </mxGeometry>
        </mxCell>
        <mxCell id="7" value="" style="endArrow=classic;html=1;rounded=0;exitX=1;exitY=0.5;exitDx=0;exitDy=0;entryX=0.5;entryY=0;entryDx=0;entryDy=0;edgeStyle=orthogonalEdgeStyle;curved=1;strokeWidth=2;strokeColor=#98AABD;" edge="1" source="14" target="11" parent="1">
          <mxGeometry width="50" height="50" relative="1" as="geometry">
            <mxPoint x="480" y="280" as="sourcePoint" />
            <mxPoint x="560" y="330" as="targetPoint" />
          </mxGeometry>
        </mxCell>
        <mxCell id="8" value="" style="endArrow=classic;html=1;rounded=0;exitX=0;exitY=0.5;exitDx=0;exitDy=0;entryX=0.5;entryY=1;entryDx=0;entryDy=0;edgeStyle=orthogonalEdgeStyle;curved=1;strokeWidth=2;strokeColor=#98AABD;" edge="1" source="11" target="14" parent="1">
          <mxGeometry width="50" height="50" relative="1" as="geometry">
            <mxPoint x="640" y="360" as="sourcePoint" />
            <mxPoint x="720" y="410" as="targetPoint" />
          </mxGeometry>
        </mxCell>
        <mxCell id="9" value="" style="endArrow=classic;html=1;rounded=0;entryX=0.5;entryY=0;entryDx=0;entryDy=0;edgeStyle=orthogonalEdgeStyle;curved=1;strokeWidth=2;strokeColor=#98AABD;exitX=1;exitY=0.5;exitDx=0;exitDy=0;" edge="1" source="11" target="2" parent="1">
          <mxGeometry width="50" height="50" relative="1" as="geometry">
            <mxPoint x="800" y="430" as="sourcePoint" />
            <mxPoint x="720" y="410" as="targetPoint" />
          </mxGeometry>
        </mxCell>
        <mxCell id="10" value="" style="endArrow=classic;html=1;rounded=0;exitX=0;exitY=0.5;exitDx=0;exitDy=0;entryX=0.5;entryY=1;entryDx=0;entryDy=0;edgeStyle=orthogonalEdgeStyle;curved=1;strokeWidth=2;strokeColor=#98AABD;" edge="1" source="2" target="11" parent="1">
          <mxGeometry width="50" height="50" relative="1" as="geometry">
            <mxPoint x="800" y="440" as="sourcePoint" />
            <mxPoint x="880" y="490" as="targetPoint" />
          </mxGeometry>
        </mxCell>
        <mxCell id="11" value="&lt;font style=&quot;font-size: 18px; color: rgb(0, 0, 0);&quot; face=&quot;Times New Roman&quot;&gt;Тестування та вдосконалення&lt;/font&gt;" style="rounded=1;whiteSpace=wrap;html=1;fillColor=#CCE5FF;strokeColor=#36393d;strokeWidth=2;" vertex="1" parent="1">
          <mxGeometry x="630" y="400" width="160" height="60" as="geometry" />
        </mxCell>
        <mxCell id="12" value="&lt;font style=&quot;font-size: 18px; color: rgb(0, 0, 0);&quot; face=&quot;Times New Roman&quot;&gt;Концепція та аналіз&lt;/font&gt;" style="rounded=1;whiteSpace=wrap;html=1;fillColor=#cce5ff;strokeColor=#36393d;strokeWidth=2;" vertex="1" parent="1">
          <mxGeometry x="150" y="160" width="160" height="60" as="geometry" />
        </mxCell>
        <mxCell id="13" value="&lt;font style=&quot;font-size: 18px; color: rgb(0, 0, 0);&quot; face=&quot;Times New Roman&quot;&gt;Планування та прототипування&lt;/font&gt;" style="rounded=1;whiteSpace=wrap;html=1;fillColor=#cce5ff;strokeColor=#36393d;strokeWidth=2;" vertex="1" parent="1">
          <mxGeometry x="310" y="240" width="160" height="60" as="geometry" />
        </mxCell>
        <mxCell id="14" value="&lt;font style=&quot;font-size: 18px; color: rgb(0, 0, 0);&quot; face=&quot;Times New Roman&quot;&gt;Іттерації розробки&lt;/font&gt;" style="rounded=1;whiteSpace=wrap;html=1;fillColor=#cce5ff;strokeColor=#36393d;strokeWidth=2;" vertex="1" parent="1">
          <mxGeometry x="470" y="320" width="160" height="60" as="geometry" />
        </mxCell>
      </root>
    </mxGraphModel>
  </diagram>
</mxfile>
